
<svg xmlns="http://www.w3.org/2000/svg" viewBox="0 0 1952 1480" preserveAspectRatio="xMidYMid" width="1952" height="1480" xmlns:xlink="http://www.w3.org/1999/xlink" style="shape-rendering:auto;display:block;background-position-x:0%;background-position-y:0%;background-size:auto;background-origin:padding-box;background-clip:border-box;fill:rgb(0, 0, 0);stroke:none;transform:none;opacity:1;background:scroll rgb(255, 255, 255) none  repeat;width:1952px;height:1480px;;animation:none"><g style="fill:rgb(0, 0, 0);stroke:none;transform:none;opacity:1;;animation:none"><linearGradient y2="0" y1="0" x2="1" x1="0" id="lg-d1k3uf13vp6" style="fill:rgb(0, 0, 0);stroke:none;transform:none;opacity:1;;animation:none"><stop offset="0" stop-color="#38b75c" style="fill:rgb(0, 0, 0);stroke:none;transform:none;opacity:1;;animation:none"></stop>

  
<stop offset="1" stop-color="#38b75c" style="fill:rgb(0, 0, 0);stroke:none;transform:none;opacity:1;;animation:none"></stop></linearGradient>
<path opacity="0.4" fill="url(#lg-d1k3uf13vp6)" d="M 0 0 L 0 1023.42 Q 325.33 739.43 650.67 718.89 T 1301.33 538.76 T 1952 430.54 L 1952 0 Z" style="fill:url('#lg-d1k3uf13vp6');stroke:none;transform:none;opacity:0.4;;animation:none"></path>
<path opacity="0.4" fill="url(#lg-d1k3uf13vp6)" d="M 0 0 L 0 965.537 Q 325.33 907.889 650.67 871.13 T 1301.33 743.876 T 1952 399.604 L 1952 0 Z" style="fill:url('#lg-d1k3uf13vp6');stroke:none;transform:none;opacity:0.4;;animation:none"></path>
<path opacity="0.4" fill="url(#lg-d1k3uf13vp6)" d="M 0 0 L 0 931.935 Q 325.33 828.365 650.67 801.645 T 1301.33 629.065 T 1952 414.205 L 1952 0 Z" style="fill:url('#lg-d1k3uf13vp6');stroke:none;transform:none;opacity:0.4;;animation:none"></path>
<path opacity="0.4" fill="url(#lg-d1k3uf13vp6)" d="M 0 0 L 0 868.922 Q 325.33 751.609 650.67 730.003 T 1301.33 613.358 T 1952 554.765 L 1952 0 Z" style="fill:url('#lg-d1k3uf13vp6');stroke:none;transform:none;opacity:0.4;;animation:none"></path>
<g style="fill:rgb(0, 0, 0);stroke:none;transform:none;opacity:1;;animation:none"></g></g><!-- [ldio] generated by https://loading.io --></svg>